<svg xmlns="http://www.w3.org/2000/svg" viewBox="0 0 392.68 90.77"><defs><style>.cls-1{fill:#eb5e1d;}.cls-2{fill:#3c3c3b;}</style></defs><title>Asset 133</title><g id="Layer_2" data-name="Layer 2"><g id="Layer_1-2" data-name="Layer 1"><rect class="cls-1" x="284.01" y="26.7" width="108.67" height="16.08" rx="1.38"/><path class="cls-1" d="M321,37.11h0a6.16,6.16,0,0,1-8-3.55L301,2.17A1.6,1.6,0,0,1,302.45,0h9.79a1.6,1.6,0,0,1,1.49,1l10.78,28.11A6.17,6.17,0,0,1,321,37.11Z"/><path class="cls-1" d="M355,37.11h0a6.17,6.17,0,0,0,8-3.55L375,2.17A1.6,1.6,0,0,0,373.49,0H363.7a1.6,1.6,0,0,0-1.49,1L351.43,29.14A6.17,6.17,0,0,0,355,37.11Z"/><path class="cls-1" d="M292,40l6.35,48.11a3,3,0,0,0,3,2.64h74a3,3,0,0,0,3-2.64L384.74,40a2,2,0,0,0-2-2.24H293.92A2,2,0,0,0,292,40Zm50.89,8.12h9a2,2,0,0,1,2,2v9a2,2,0,0,1-2,2h-9a2,2,0,0,1-2-2v-9A2,2,0,0,1,342.85,48.14Zm-18,0h9a2,2,0,0,1,2,2v9a2,2,0,0,1-2,2h-9a2,2,0,0,1-2-2v-9A2,2,0,0,1,324.85,48.14Zm-20,11v-9a2,2,0,0,1,2-2h9a2,2,0,0,1,2,2v9a2,2,0,0,1-2,2h-9A2,2,0,0,1,304.85,59.14Zm20,22.27h-9a2,2,0,0,1-2-2v-9a2,2,0,0,1,2-2h9a2,2,0,0,1,2,2v9A2,2,0,0,1,324.85,81.41Zm18,0h-9a2,2,0,0,1-2-2v-9a2,2,0,0,1,2-2h9a2,2,0,0,1,2,2v9A2,2,0,0,1,342.85,81.41Zm18,0h-9a2,2,0,0,1-2-2v-9a2,2,0,0,1,2-2h9a2,2,0,0,1,2,2v9A2,2,0,0,1,360.85,81.41Zm9-20.27h-9a2,2,0,0,1-2-2v-9a2,2,0,0,1,2-2h9a2,2,0,0,1,2,2v9A2,2,0,0,1,369.85,61.14Z"/><path class="cls-2" d="M67.35,89.77H40.41v-51H26.94v51H0V26H60.61v6.38h6.74Z"/><path class="cls-2" d="M107.76,89.77H80.82V26h26.94Z"/><path class="cls-2" d="M188.58,89.77H128V83.4h-6.73v-51H128V26h60.62V38.78H148.17V77h40.41Z"/><path class="cls-2" d="M269.4,89.77H242.46V64.28H229V89.77H202.05V26H229v25.5h13.47V26H269.4v25.5h-6.74V64.28h6.74Z"/></g></g></svg>